HIERARCHY
ROOT Hips
{
	OFFSET 0.053599 88.859886 3.107447
	CHANNELS 6 Xposition Yposition Zposition Zrotation Yrotation Xrotation 
	JOINT Spine
	{
		OFFSET -0.000000 8.814246 -2.080107
		CHANNELS 3 Zrotation Yrotation Xrotation
		JOINT Spine1
		{
			OFFSET 0.000000 8.844141 0.000000
			CHANNELS 3 Zrotation Yrotation Xrotation
			JOINT Spine2
			{
				OFFSET -0.000000 11.682268 0.000000
				CHANNELS 3 Zrotation Yrotation Xrotation
				JOINT Spine3
				{
					OFFSET 0.000000 11.746700 0.000000
					CHANNELS 3 Zrotation Yrotation Xrotation
					JOINT Neck
					{
						OFFSET -0.000000 17.658264 -0.000000
						CHANNELS 3 Zrotation Yrotation Xrotation
						JOINT Neck1
						{
							OFFSET -0.000000 5.101515 -0.000000
							CHANNELS 3 Zrotation Yrotation Xrotation
							JOINT Head
							{
								OFFSET 0.000000 5.101515 0.000000
								CHANNELS 3 Zrotation Yrotation Xrotation
								JOINT HeadEnd
								{
									OFFSET 0.000000 11.655085 0.000000
									CHANNELS 3 Zrotation Yrotation Xrotation
									End Site
									{
										OFFSET 0.000000 0.000000 0.000000
									}
								}
							}
						}
					}
					JOINT RightShoulder
					{
						OFFSET -2.625389 11.175210 0.000000
						CHANNELS 3 Zrotation Yrotation Xrotation
						JOINT RightArm
						{
							OFFSET -0.000000 10.434715 -0.000000
							CHANNELS 3 Zrotation Yrotation Xrotation
							JOINT RightForeArm
							{
								OFFSET -0.000000 29.628420 0.000000
								CHANNELS 3 Zrotation Yrotation Xrotation
								JOINT RightHand
								{
									OFFSET -0.000000 22.857611 0.000000
									CHANNELS 3 Zrotation Yrotation Xrotation
									JOINT RightHandThumb1
									{
										OFFSET -2.867323 3.959563 2.944291
										CHANNELS 3 Zrotation Yrotation Xrotation
										JOINT RightHandThumb2
										{
											OFFSET 0.000000 3.350399 0.000000
											CHANNELS 3 Zrotation Yrotation Xrotation
											JOINT RightHandThumb3
											{
												OFFSET 0.000000 3.756509 -0.000000
												CHANNELS 3 Zrotation Yrotation Xrotation
												JOINT RightHandThumb4
												{
													OFFSET 0.000000 3.147345 0.000000
													CHANNELS 3 Zrotation Yrotation Xrotation
													End Site
													{
														OFFSET 0.000000 0.000000 0.000000
													}
												}
											}
										}
									}
									JOINT RightHandIndex1
									{
										OFFSET -0.086752 10.030893 2.345280
										CHANNELS 3 Zrotation Yrotation Xrotation
										JOINT RightHandIndex2
										{
											OFFSET -0.000000 4.061090 0.000000
											CHANNELS 3 Zrotation Yrotation Xrotation
											JOINT RightHandIndex3
											{
												OFFSET -0.000000 3.248873 0.000000
												CHANNELS 3 Zrotation Yrotation Xrotation
												JOINT RightHandIndex4
												{
													OFFSET 0.000000 2.639709 -0.000000
													CHANNELS 3 Zrotation Yrotation Xrotation
													End Site
													{
														OFFSET 0.000000 0.000000 0.000000
													}
												}
											}
										}
									}
									JOINT RightHandMiddle1
									{
										OFFSET 0.104102 9.502952 0.006768
										CHANNELS 3 Zrotation Yrotation Xrotation
										JOINT RightHandMiddle2
										{
											OFFSET 0.000000 4.568727 0.000000
											CHANNELS 3 Zrotation Yrotation Xrotation
											JOINT RightHandMiddle3
											{
												OFFSET 0.000000 3.654981 -0.000000
												CHANNELS 3 Zrotation Yrotation Xrotation
												JOINT RightHandMiddle4
												{
													OFFSET -0.000000 2.741236 -0.000000
													CHANNELS 3 Zrotation Yrotation Xrotation
													End Site
													{
														OFFSET 0.000000 0.000000 0.000000
													}
												}
											}
										}
									}
									JOINT RightHandRing1
									{
										OFFSET 0.086752 8.921708 -2.267442
										CHANNELS 3 Zrotation Yrotation Xrotation
										JOINT RightHandRing2
										{
											OFFSET -0.000000 4.061090 0.000000
											CHANNELS 3 Zrotation Yrotation Xrotation
											JOINT RightHandRing3
											{
												OFFSET 0.000000 3.654981 -0.000000
												CHANNELS 3 Zrotation Yrotation Xrotation
												JOINT RightHandRing4
												{
													OFFSET 0.000000 2.741236 -0.000000
													CHANNELS 3 Zrotation Yrotation Xrotation
													End Site
													{
														OFFSET 0.000000 0.000000 0.000000
													}
												}
											}
										}
									}
									JOINT RightHandPinky1
									{
										OFFSET -0.173504 7.976997 -4.467199
										CHANNELS 3 Zrotation Yrotation Xrotation
										JOINT RightHandPinky2
										{
											OFFSET 0.000000 3.350399 -0.000000
											CHANNELS 3 Zrotation Yrotation Xrotation
											JOINT RightHandPinky3
											{
												OFFSET -0.000000 2.842763 0.000000
												CHANNELS 3 Zrotation Yrotation Xrotation
												JOINT RightHandPinky4
												{
													OFFSET -0.000000 2.639709 0.000000
													CHANNELS 3 Zrotation Yrotation Xrotation
													End Site
													{
														OFFSET 0.000000 0.000000 0.000000
													}
												}
											}
										}
									}
									JOINT RightForeArmEnd
									{
										OFFSET 0.000000 0.000000 0.000000
										CHANNELS 3 Zrotation Yrotation Xrotation
										End Site
										{
											OFFSET 0.000000 0.000000 0.000000
										}
									}
								}
								JOINT RightArmEnd
								{
									OFFSET 0.000000 0.000000 0.000000
									CHANNELS 3 Zrotation Yrotation Xrotation
									End Site
									{
										OFFSET 0.000000 0.000000 0.000000
									}
								}
							}
						}
					}
					JOINT LeftShoulder
					{
						OFFSET 2.625389 11.175210 0.000000
						CHANNELS 3 Zrotation Yrotation Xrotation
						JOINT LeftArm
						{
							OFFSET 0.000000 10.813635 -0.000000
							CHANNELS 3 Zrotation Yrotation Xrotation
							JOINT LeftForeArm
							{
								OFFSET 0.000000 28.724781 0.000000
								CHANNELS 3 Zrotation Yrotation Xrotation
								JOINT LeftHand
								{
									OFFSET 0.644384 25.716167 -0.328871
									CHANNELS 3 Zrotation Yrotation Xrotation
									JOINT LeftHandThumb1
									{
										OFFSET 2.867323 3.959563 2.944291
										CHANNELS 3 Zrotation Yrotation Xrotation
										JOINT LeftHandThumb2
										{
											OFFSET 0.000000 3.350399 0.000000
											CHANNELS 3 Zrotation Yrotation Xrotation
											JOINT LeftHandThumb3
											{
												OFFSET -0.000000 3.756509 0.000000
												CHANNELS 3 Zrotation Yrotation Xrotation
												JOINT LeftHandThumb4
												{
													OFFSET -0.000000 3.100000 0.000000
													CHANNELS 3 Zrotation Yrotation Xrotation
													End Site
													{
														OFFSET 0.000000 0.000000 0.000000
													}
												}
											}
										}
									}
									JOINT LeftHandIndex1
									{
										OFFSET 0.086752 10.030893 2.345280
										CHANNELS 3 Zrotation Yrotation Xrotation
										JOINT LeftHandIndex2
										{
											OFFSET -0.000000 4.061090 -0.000000
											CHANNELS 3 Zrotation Yrotation Xrotation
											JOINT LeftHandIndex3
											{
												OFFSET 0.000000 3.248873 -0.000000
												CHANNELS 3 Zrotation Yrotation Xrotation
												JOINT LeftHandIndex4
												{
													OFFSET 0.000000 2.639709 -0.000000
													CHANNELS 3 Zrotation Yrotation Xrotation
													End Site
													{
														OFFSET 0.000000 0.000000 0.000000
													}
												}
											}
										}
									}
									JOINT LeftHandMiddle1
									{
										OFFSET -0.104102 9.502952 0.006768
										CHANNELS 3 Zrotation Yrotation Xrotation
										JOINT LeftHandMiddle2
										{
											OFFSET -0.000000 4.568727 -0.000000
											CHANNELS 3 Zrotation Yrotation Xrotation
											JOINT LeftHandMiddle3
											{
												OFFSET 0.000000 3.654981 0.000000
												CHANNELS 3 Zrotation Yrotation Xrotation
												JOINT LeftHandMiddle4
												{
													OFFSET 0.000000 2.741236 -0.000000
													CHANNELS 3 Zrotation Yrotation Xrotation
													End Site
													{
														OFFSET 0.000000 0.000000 0.000000
													}
												}
											}
										}
									}
									JOINT LeftHandRing1
									{
										OFFSET -0.086752 8.921708 -2.267442
										CHANNELS 3 Zrotation Yrotation Xrotation
										JOINT LeftHandRing2
										{
											OFFSET 0.000000 4.061090 0.000000
											CHANNELS 3 Zrotation Yrotation Xrotation
											JOINT LeftHandRing3
											{
												OFFSET 0.000000 3.654981 0.000000
												CHANNELS 3 Zrotation Yrotation Xrotation
												JOINT LeftHandRing4
												{
													OFFSET 0.000000 2.741236 0.000000
													CHANNELS 3 Zrotation Yrotation Xrotation
													End Site
													{
														OFFSET 0.000000 0.000000 0.000000
													}
												}
											}
										}
									}
									JOINT LeftHandPinky1
									{
										OFFSET 0.173504 7.976997 -4.467199
										CHANNELS 3 Zrotation Yrotation Xrotation
										JOINT LeftHandPinky2
										{
											OFFSET -0.000000 3.350399 -0.000000
											CHANNELS 3 Zrotation Yrotation Xrotation
											JOINT LeftHandPinky3
											{
												OFFSET 0.000000 2.842763 0.000000
												CHANNELS 3 Zrotation Yrotation Xrotation
												JOINT LeftHandPinky4
												{
													OFFSET -0.000000 2.639709 -0.000000
													CHANNELS 3 Zrotation Yrotation Xrotation
													End Site
													{
														OFFSET 0.000000 0.000000 0.000000
													}
												}
											}
										}
									}
									JOINT LeftForeArmEnd
									{
										OFFSET 0.000000 0.000000 0.000000
										CHANNELS 3 Zrotation Yrotation Xrotation
										End Site
										{
											OFFSET 0.000000 0.000000 0.000000
										}
									}
								}
								JOINT LeftArmEnd
								{
									OFFSET 0.000000 0.000000 0.000000
									CHANNELS 3 Zrotation Yrotation Xrotation
									End Site
									{
										OFFSET 0.000000 0.000000 0.000000
									}
								}
							}
						}
					}
				}
			}
		}
	}
	JOINT RightUpLeg
	{
		OFFSET -11.289943 0.000000 0.000000
		CHANNELS 3 Zrotation Yrotation Xrotation
		JOINT RightLeg
		{
			OFFSET 0.000000 -38.200325 0.000000
			CHANNELS 3 Zrotation Yrotation Xrotation
			JOINT RightFoot
			{
				OFFSET -0.000000 -39.900856 -0.000000
				CHANNELS 3 Zrotation Yrotation Xrotation
				JOINT RightToeBase
				{
					OFFSET 0.000000 0.000000 15.261641
					CHANNELS 3 Zrotation Yrotation Xrotation
					JOINT RightToeBaseEnd
					{
						OFFSET 0.000000 0.000000 7.370709
						CHANNELS 3 Zrotation Yrotation Xrotation
						End Site
						{
							OFFSET 0.000000 0.000000 0.000000
						}
					}
				}
				JOINT RightLegEnd
				{
					OFFSET 0.000000 0.000000 0.000000
					CHANNELS 3 Zrotation Yrotation Xrotation
					End Site
					{
						OFFSET 0.000000 0.000000 0.000000
					}
				}
			}
			JOINT RightUpLegEnd
			{
				OFFSET 0.000000 0.000000 0.000000
				CHANNELS 3 Zrotation Yrotation Xrotation
				End Site
				{
					OFFSET 0.000000 0.000000 0.000000
				}
			}
		}
	}
	JOINT LeftUpLeg
	{
		OFFSET 11.315661 -0.000000 0.000000
		CHANNELS 3 Zrotation Yrotation Xrotation
		JOINT LeftLeg
		{
			OFFSET -0.000000 -38.200325 -0.000000
			CHANNELS 3 Zrotation Yrotation Xrotation
			JOINT LeftFoot
			{
				OFFSET 0.000000 -39.900856 -0.000000
				CHANNELS 3 Zrotation Yrotation Xrotation
				JOINT LeftToeBase
				{
					OFFSET -0.000000 -0.000000 15.261641
					CHANNELS 3 Zrotation Yrotation Xrotation
					JOINT LeftToeBaseEnd
					{
						OFFSET 0.000000 -0.000000 7.539996
						CHANNELS 3 Zrotation Yrotation Xrotation
						End Site
						{
							OFFSET 0.000000 0.000000 0.000000
						}
					}
				}
				JOINT LeftLegEnd
				{
					OFFSET 0.000000 0.000000 0.000000
					CHANNELS 3 Zrotation Yrotation Xrotation
					End Site
					{
						OFFSET 0.000000 0.000000 0.000000
					}
				}
			}
			JOINT LeftUpLegEnd
			{
				OFFSET 0.000000 0.000000 0.000000
				CHANNELS 3 Zrotation Yrotation Xrotation
				End Site
				{
					OFFSET 0.000000 0.000000 0.000000
				}
			}
		}
	}
}
MOTION
Frames: 4
Frame Time: 0.016667
0.699053 88.440445 3.326139 0.455317 -2.532748 -12.293566 0.914634 0.349510 7.205699 -0.434655 0.285088 1.899429 -0.672976 0.461910 6.598899 -1.618441 0.406255 5.214175 -0.029462 -1.097793 9.685567 -0.112720 -1.357771 -1.012530 0.344102 -0.955942 -22.212091 0.000000 0.000000 0.000000 89.603256 -0.054663 8.346720 59.350121 -3.092782 4.513862 -0.979178 19.031912 90.824448 24.277697 35.321026 15.171492 17.494972 30.800934 64.278374 -6.022152 -7.750546 -13.705701 -4.353770 -5.054622 -9.302171 0.000000 0.000000 0.000000 -5.073472 -8.045429 12.425184 1.586184 0.465561 0.504476 1.126230 0.041959 0.520013 0.000000 0.000000 0.000000 -3.421826 -2.888888 6.441050 0.205810 0.486312 0.179192 1.181518 -0.007883 0.151453 0.000000 0.000000 0.000000 0.947774 4.326354 -1.184727 1.781954 -0.970096 -0.386442 1.976257 -0.010181 -0.237595 0.000000 0.000000 0.000000 2.101333 12.466227 -9.382558 3.857360 -1.812153 -1.140497 3.765616 0.104904 -0.865287 0.000000 0.000000 0.000000 0.000000 0.000000 0.000000 0.000000 0.000000 0.000000 -87.933990 0.509823 3.239216 -64.084641 -3.694718 -5.548018 -0.246627 -18.540249 100.258606 -35.699574 -25.474373 13.050501 -16.408409 -31.259480 65.549019 4.586258 5.347752 -9.964814 3.213936 3.739007 -6.927654 0.000000 0.000000 0.000000 8.396321 -10.597349 18.454138 -0.204522 0.469146 -0.239653 -0.300302 0.008776 -0.314625 0.000000 0.000000 0.000000 7.080861 -4.848202 10.725835 -0.684710 0.481357 -0.191807 -1.259329 -0.005975 -0.156698 0.000000 0.000000 0.000000 -0.300637 4.394628 0.624531 -4.226239 -0.937389 0.525466 -4.357912 0.035878 0.385534 0.000000 0.000000 0.000000 -10.572710 14.569732 -10.368723 -8.881107 -1.617042 2.283359 -8.306988 0.350587 1.934702 0.000000 0.000000 0.000000 0.000000 0.000000 0.000000 0.000000 0.000000 0.000000 -1.798204 -8.401408 15.043751 -0.065155 -0.656919 6.721044 -2.775182 -6.254127 16.262884 -0.791079 0.861761 -18.269609 0.000000 0.000000 0.000000 0.000000 0.000000 0.000000 0.000000 0.000000 0.000000 -1.403732 -4.582657 10.495510 0.077567 0.389195 12.088879 3.540252 -1.209030 15.860926 0.241434 -0.536098 -20.711748 0.000000 0.000000 0.000000 0.000000 0.000000 0.000000 0.000000 0.000000 0.000000 
0.701266 88.424217 3.312834 0.454310 -2.520731 -12.306276 0.923748 0.365950 7.220349 -0.375974 0.289881 1.934337 -0.721432 0.567906 6.519430 -1.604398 0.447567 5.200922 0.026599 -1.105578 9.923333 -0.111303 -1.373372 -0.890521 0.356194 -0.955860 -22.318546 0.000000 0.000000 0.000000 89.471634 -0.017427 8.317499 59.336884 -1.548729 4.858581 -0.976040 19.287737 91.839729 25.593962 36.923805 16.567085 17.459969 30.815441 64.327133 -5.973002 -7.681028 -13.585572 -4.317999 -5.001143 -9.211646 0.000000 0.000000 0.000000 -5.325501 -8.002575 12.696998 1.522826 0.463454 0.514827 1.046749 0.039418 0.531758 0.000000 0.000000 0.000000 -3.625391 -2.851986 6.631251 0.137690 0.484524 0.181982 1.116692 -0.009473 0.154182 0.000000 0.000000 0.000000 0.811142 4.356598 -1.100212 1.736741 -0.967835 -0.391516 1.938315 -0.008740 -0.241425 0.000000 0.000000 0.000000 2.078640 12.491041 -9.401895 3.878810 -1.805194 -1.159758 3.784013 0.109488 -0.875518 0.000000 0.000000 0.000000 0.000000 0.000000 0.000000 0.000000 0.000000 0.000000 -87.884361 0.532314 3.168509 -63.609806 -4.777269 -5.282568 -0.271972 -18.595938 101.331581 -37.048355 -26.172144 15.206893 -16.344219 -31.283009 65.626740 4.508907 5.207831 -9.744028 3.150284 3.650507 -6.776585 0.000000 0.000000 0.000000 8.690992 -10.652286 18.681030 -0.103483 0.464945 -0.237343 -0.206286 0.005008 -0.312014 0.000000 0.000000 0.000000 7.309830 -4.895072 10.883351 -0.614545 0.479195 -0.191895 -1.201927 -0.006951 -0.157327 0.000000 0.000000 0.000000 -0.207446 4.390874 0.667603 -4.286029 -0.932583 0.537724 -4.418651 0.039464 0.395819 0.000000 0.000000 0.000000 -10.657211 14.622499 -10.440169 -9.080558 -1.597494 2.335454 -8.499886 0.366584 1.976537 0.000000 0.000000 0.000000 0.000000 0.000000 0.000000 0.000000 0.000000 0.000000 -1.801430 -8.400754 15.051590 -0.064431 -0.655639 6.708416 -2.790305 -6.262202 16.246315 -0.784137 0.855328 -18.252037 0.000000 0.000000 0.000000 0.000000 0.000000 0.000000 0.000000 0.000000 0.000000 -1.403234 -4.581157 10.459613 0.079283 0.387624 12.099156 3.547819 -1.175495 15.871735 0.244015 -0.542736 -20.677137 0.000000 0.000000 0.000000 0.000000 0.000000 0.000000 0.000000 0.000000 0.000000 
0.701294 88.407967 3.299626 0.451125 -2.500171 -12.319881 0.931280 0.383326 7.237717 -0.315043 0.294896 1.971761 -0.766879 0.689768 6.432524 -1.592024 0.496956 5.185143 0.085098 -1.097186 10.137942 -0.112673 -1.381138 -0.776577 0.365657 -0.950616 -22.413321 0.000000 0.000000 0.000000 89.344780 0.020780 8.312358 59.377876 -0.048417 5.214157 -0.967986 19.559935 92.580299 26.799824 38.545979 17.913464 17.445551 30.823502 64.355370 -5.946816 -7.654552 -13.526104 -4.300160 -4.974426 -9.164776 0.000000 0.000000 0.000000 -5.451147 -7.986816 12.964961 1.524008 0.462373 0.525435 1.036690 0.037998 0.544963 0.000000 0.000000 0.000000 -3.710990 -2.837479 6.836801 0.135010 0.483220 0.185193 1.120623 -0.010695 0.157346 0.000000 0.000000 0.000000 0.794991 4.365781 -0.964293 1.763476 -0.966692 -0.396060 1.975334 -0.007905 -0.245245 0.000000 0.000000 0.000000 2.183114 12.498225 -9.343155 3.970635 -1.803209 -1.175169 3.871742 0.110772 -0.884494 0.000000 0.000000 0.000000 0.000000 0.000000 0.000000 0.000000 0.000000 0.000000 -87.827698 0.549831 3.106088 -63.211117 -5.857876 -4.987569 -0.293852 -18.641743 102.326324 -38.422295 -26.929272 17.487009 -16.301065 -31.298162 65.680389 4.459877 5.110476 -9.590962 3.108248 3.590293 -6.675347 0.000000 0.000000 0.000000 8.850867 -10.684050 18.879204 -0.023148 0.462253 -0.233716 -0.131595 0.002633 -0.308416 0.000000 0.000000 0.000000 7.398872 -4.917460 11.029374 -0.565594 0.477646 -0.191677 -1.166539 -0.007460 -0.157687 0.000000 0.000000 0.000000 -0.263340 4.412223 0.725373 -4.377687 -0.928872 0.549168 -4.512375 0.042357 0.405595 0.000000 0.000000 0.000000 -10.871578 14.696972 -10.470864 -9.317196 -1.581661 2.383660 -8.728230 0.379766 2.015987 0.000000 0.000000 0.000000 0.000000 0.000000 0.000000 0.000000 0.000000 0.000000 -1.805533 -8.400596 15.061225 -0.063848 -0.654938 6.697872 -2.797665 -6.278109 16.231367 -0.779366 0.851125 -18.230267 0.000000 0.000000 0.000000 0.000000 0.000000 0.000000 0.000000 0.000000 0.000000 -1.399297 -4.589544 10.422031 0.081058 0.385808 12.115804 3.553797 -1.152366 15.873333 0.246551 -0.549337 -20.631069 0.000000 0.000000 0.000000 0.000000 0.000000 0.000000 0.000000 0.000000 0.000000 
0.700133 88.393013 3.287431 0.447194 -2.469566 -12.334384 0.937266 0.399929 7.256382 -0.252974 0.299080 2.010244 -0.810618 0.819385 6.341187 -1.581656 0.550405 5.168240 0.138061 -1.070519 10.330519 -0.116422 -1.377877 -0.671844 0.370580 -0.941485 -22.494514 0.000000 0.000000 0.000000 89.226204 0.056942 8.325434 59.462204 1.393625 5.576163 -0.955004 19.840055 93.038963 27.900724 40.146465 19.186007 17.442173 30.827883 64.371948 -5.934359 -7.652318 -13.500698 -4.292682 -4.962341 -9.142045 0.000000 0.000000 0.000000 -5.521791 -7.984059 13.236100 1.557078 0.462885 0.532097 1.062273 0.038275 0.555750 0.000000 0.000000 0.000000 -3.746414 -2.832653 7.057021 0.164181 0.482589 0.187156 1.158586 -0.011327 0.159567 0.000000 0.000000 0.000000 0.833194 4.364927 -0.788897 1.822915 -0.966810 -0.398022 2.045819 -0.007899 -0.247551 0.000000 0.000000 0.000000 2.347775 12.494987 -9.229957 4.092153 -1.806503 -1.181514 3.986593 0.108280 -0.887804 0.000000 0.000000 0.000000 0.000000 0.000000 0.000000 0.000000 0.000000 0.000000 -87.774254 0.562948 3.052860 -62.914516 -6.929793 -4.669397 -0.313665 -18.676548 103.221428 -39.791084 -27.746948 19.805281 -16.270653 -31.308048 65.718910 4.428765 5.039366 -9.479979 3.079674 3.547398 -6.605005 0.000000 0.000000 0.000000 8.943012 -10.703865 19.068830 0.047409 0.461670 -0.227140 -0.066188 0.002170 -0.302425 0.000000 0.000000 0.000000 7.414261 -4.926416 11.177505 -0.521153 0.476922 -0.190215 -1.136762 -0.007290 -0.157109 0.000000 0.000000 0.000000 -0.395280 4.445534 0.801835 -4.465407 -0.926583 0.557927 -4.602815 0.044237 0.413377 0.000000 0.000000 0.000000 -11.141598 14.779074 -10.466200 -9.543438 -1.570786 2.421539 -8.944449 0.388983 2.047779 0.000000 0.000000 0.000000 0.000000 0.000000 0.000000 0.000000 0.000000 0.000000 -1.812440 -8.405718 15.078405 -0.063419 -0.655095 6.683355 -2.798410 -6.301344 16.218134 -0.776877 0.848829 -18.204288 0.000000 0.000000 0.000000 0.000000 0.000000 0.000000 0.000000 0.000000 0.000000 -1.393883 -4.607732 10.384336 0.082837 0.383788 12.136087 3.559497 -1.140239 15.871267 0.248604 -0.555448 -20.579199 0.000000 0.000000 0.000000 0.000000 0.000000 0.000000 0.000000 0.000000 0.000000 
